<svg id="圖層_1" data-name="圖層 1" xmlns="http://www.w3.org/2000/svg" viewBox="0 0 391.18 520.25"><title>taiwan_w_names</title><g id="keelung-city"><path class="cls-1" d="M315.9,53.9c1.1-.7,4.2-1.7,7.7-3.2a2.18,2.18,0,0,0,.7.9,24.49,24.49,0,0,0,7.9,4.3c1.2,2.3.3,3.6.7,6.3.4,2.9.6,4.4,0,6.4s-11.8-.6-15.3-6S314.4,54.7,315.9,53.9Zm55.9-41.5c.9,2.2,4,2.5,7.1,2.5s.3,2.5,9,2.5,8.7-2.5,4-5-17.7-7.1-18.6-5.6S371.8,12.4,371.8,12.4Z" transform="translate(-4.36 -6.01)"/></g><g id="new-taipei-city"><path class="cls-2" d="M361.5,72.3c-6.8-.3-9,.3-9.3-6.2,1.2-11.2-6.2-9.3-13.7-9.3a21,21,0,0,1-6.4-1c1.2,2.3.3,3.6.7,6.3.4,2.9.6,4.4,0,6.4s-11.8-.6-15.3-6-3.1-7.9-1.7-8.7c1.1-.7,4.2-1.7,7.7-3.2-.8-1.8-.2-4.7-3.1-4.4-3.4.3-5.3-2.5-6.2-8.1s-15.8-3.1-18.3-2.2-13,13.4-15.8,15.6c0,0-2.2,4.6-3.7,6.1-1,1-4.1,1.5-7.5,1.6,4.1,3.4,5.5,4.9,8.2,5.9,3.3,1.2,5.6.6,6.6,2.9s2.7,5.4.8,7.3-5.8,4.3-7.7,3.9-2.1,7.9-1.3,10.4,3.8,2.5,2.6,4.6-.4,5,3.1,4.8,5.2,1.4,6.8,2.7,3,7,1.2,7.7-1.8,2.5.9,5.4,3.4,6.8,4.2,7.5a4.54,4.54,0,0,0,.9.5s7,1.1,8-1.8,3.4-4.1,6.1-5,4.1-1,2.3-4.4-1.4-3.5.8-5.8,4.5-3.7,6.4-3.7,6.6-1.2,7.3-3.3.2-2.5,4.3-2.9,6.2-4.6,6.6-6,2.5-1.9,5-1.9,3.5-3.1,2.1-5-1-3.9,3.7-3.3,4.6-3.1,8.3-2.7c1.5.2,3.3.5,5.1.8C364.4,75.6,366.6,72.6,361.5,72.3ZM313,75.4c-1.7,1,2.3,5.2,0,5.8-7.7.4-8.1-3.1-11-5s-4.3-3.9-4.3-7-1.4-5.5-5.6-8.4-2.9-5.2-.8-5.6,15-8.2,16.4-8.7,2.7,1.9,1.9,3.7.2,3.9,1,7.7,4.4,2.9,4.3,4.1,1.1,5.2,2.3,9.3C318.4,75.7,314.6,74.4,313,75.4Z" transform="translate(-4.36 -6.01)"/></g><g id="taipei-city"><path class="cls-3" d="M317.1,71.5c1.2,4.1-2.5,2.9-4.1,3.9s2.3,5.2,0,5.8c-7.7.4-8.1-3.1-11-5s-4.3-3.9-4.3-7-1.4-5.5-5.6-8.4-2.9-5.2-.8-5.6,15-8.2,16.4-8.7,2.7,1.9,1.9,3.7.2,3.9,1,7.7,4.4,2.9,4.3,4.1C314.8,63.4,315.9,67.4,317.1,71.5Z" transform="translate(-4.36 -6.01)"/></g><g id="taoyuan-city"><path class="cls-4" d="M287.8,135.2c-1.3.1-2.3-.3-3.7-.3-1.9,0-4.1-3.3-5.4-5s-5.2-2.3-7.7-3.5.4-5,1.7-8.1,2.5-9.3,0-9.1-3.5.2-5-2.5-3.5-3.5-8.1-4.4-6-4.6-5.6-6.8-1.4-2.5-4.6-3.3-6.6-.6-7.7-5.2-3.5-2.9-5.7-1.9c-1.5.7-4.7.1-8.4-.5a13.6,13.6,0,0,1,1.7-1.2c2.2-6.8,14.3-20.5,23.6-19.6,3.4-1.6,5.3-5,10.3-4.7,1.8.1,3.7.1,5.6.1,4.1,3.4,5.5,4.9,8.2,5.9,3.3,1.2,5.6.6,6.6,2.9s2.7,5.4.8,7.3-5.8,4.3-7.7,3.9-2.1,7.9-1.3,10.4,3.8,2.5,2.6,4.6-.4,5,3.1,4.8,5.2,1.4,6.8,2.7,3,7,1.2,7.7-1.8,2.5.9,5.4,3.5,6.9,4.3,7.6c-.3.8-.5,1.6-.8,2.3-.8,2.3,2.5,5,1.7,7.2s-3.6,2.2-5.7,2.8l-1.7.5" transform="translate(-4.36 -6.01)"/></g><g id="hsinchu-county"><path class="cls-5" d="M275.1,157.9c-.2,0-5.3,1.1-7.4,1.4,0-2-2.5-5.5-3.4-8.1-1-2.9-2.7-4.4-4.3-5s-3.5,1.5-4.6,2.2-6.4-.9-10.8-.1.2-4.1-1.5-5-2.3-1.5-1.5-3.7,3-7.7,0-8.5-5.9-4.1-7.8-4.8a28,28,0,0,1-5.6-4.1c.2-1.1.5-2.1.5-2.5,0-1,1.9-4.1,3.9-7s4.3-1.9,7.7-2.3,0-5.4-2.9-6.8c-2.6-1.3-11.8-4.8-17.2-5.3.3-4.7,4.2-10.8,7.6-13.6,3.8.6,6.9,1.2,8.4.5,2.2-1,4.7-2.7,5.7,1.9s4.6,4.3,7.7,5.2,5,1,4.6,3.3,1,6,5.6,6.8,6.6,1.7,8.1,4.4,2.5,2.7,5,2.5,1.2,6,0,9.1-4.1,6.8-1.7,8.1,6.4,1.9,7.7,3.5,3.5,5,5.4,5c1.4,0,2.4.3,3.7.3-.6,1.9-1.4,3.9-1,5.3.6,2.1.2,3.6-3.1,5.4s-7.5,5.6-7.5,7.4,3.5,3.3,0,4.2Z" transform="translate(-4.36 -6.01)"/></g><g id="hsinchu-city"><path class="cls-6" d="M215.3,113.5c.3-.3.6-.5.9-.8,3.7-3.7,4-8.4,4-14v-.5c5.4.5,14.6,4.1,17.2,5.3,2.9,1.5,6.2,6.4,2.9,6.8s-5.6-.6-7.7,2.3-3.9,6-3.9,7a13.18,13.18,0,0,1-.5,2.5,50.76,50.76,0,0,1-5.7-5.6C221.1,114.9,218.8,114.4,215.3,113.5Z" transform="translate(-4.36 -6.01)"/></g><g id="miaoli-county"><path class="cls-7" d="M182.3,154.3a3.47,3.47,0,0,1,3.4-1.8c2.2-.3,2.5-5.9,3.7-9.3s1.6-11.2,6.5-11.5,3.4-3.7,5-5.6,3.1-2.8,7.5-2.2,1.6-3.1,1.6-5c0-1.7,2.1-2.4,5.4-5.4,3.5.8,5.8,1.3,7.2,3.1a37.84,37.84,0,0,0,5.7,5.6h0c2.4,2,4.7,3.8,5.6,4.1,1.9.6,4.8,3.9,7.8,4.8s.8,6.2,0,8.5-.2,2.9,1.5,3.7-2.9,5.8,1.5,5,9.7.8,10.8.1,2.9-2.8,4.6-2.2,3.3,2.1,4.3,5c.9,2.6,3.4,6,3.4,8.1h0a1.27,1.27,0,0,1-.1.6c-.6,1.9,1.2,3.5-1.9,4.1s-5.3-1.9-6.8,1a13.54,13.54,0,0,1-6.3,6c-2.7,1.5-1,3.7-3.9,3.7s-6.6-.8-7.1,1.2-4.1,1.4-4.5,0-2.5-2.5-6.2-2.7-6.4-.4-6.4,1.9-2.7,4.8-7.5,4.1-6-2.1-8.7-3.7-2.9.6-8.3-3.9-11.8-8.9-13-11.8A24.29,24.29,0,0,0,182.3,154.3Z" transform="translate(-4.36 -6.01)"/></g><g id="taichung-city"><path class="cls-8" d="M168.4,194.1a25.16,25.16,0,0,1-3.9-1.4c3-4.8,6.1-10.3,6.3-12.2.3-3.4,5.3-15.2,8.4-18.6,2-2.2,1.9-5.5,3.1-7.5,1.7,1.5,4,3.8,4.8,5.7,1.2,2.9,7.7,7.2,13,11.8s5.6,2.3,8.3,3.9,3.9,3.1,8.7,3.7,7.5-1.9,7.5-4.1,2.7-2.1,6.4-1.9,5.8,1.2,6.2,2.7,3.9,2.1,4.5,0,4.2-1.2,7.1-1.2,1.2-2.3,3.9-3.7a14,14,0,0,0,6.3-6c1.5-2.9,3.7-.4,6.8-1s1.2-2.3,1.9-4.1a1.27,1.27,0,0,0,.1-.6l7.4-1.4a4.33,4.33,0,0,0,.5-.1,10.82,10.82,0,0,1,.8,3.4c.1,1.9,2.4,3.7,3.4,3.1s1.7,2.1,3.5,2.7,4.2-2.9,6-2.9a4.17,4.17,0,0,1,4.4,3,4.68,4.68,0,0,0,.8,1.4c-1.3,4.5-3.2,7.7-4.5,8.5-1.7,1-4.1,4.8-5,7.3s-2.1.8-3.5,2.9a3.44,3.44,0,0,1-1.3,1.2h0c-.8.4-1.8,0-3.8-.2-3-.2-5.7-1.9-8.7-.4s-5.5-.8-8.7.8-4.4,2.1-6.3,3.8-3.1,1-4.8,1.7-2.3,3.9-4.8,4.1-5.4-.2-5.6,1.9-2.9,4.6-5,4.6-2.1.2-3.5-1.2-1,.8-3.7,1.3-7.9.6-9.7,0-1.9,2.9-2.5,3.7-3.7,10.1-7,12.4-7.5.6-11.4,0c-3.5-.5-4.2-.6-5.8-1.6h0a4.35,4.35,0,0,0-.7-.4c-2.1-1.5-2.7-2.1-2.5-4.3s-1.7-5.6-3.9-6.4-9.5-2.7-9.7-6.6C171.9,197.2,172.1,195.2,168.4,194.1Z" transform="translate(-4.36 -6.01)"/></g><g id="nantou-county"><path class="cls-9" d="M280.2,188.3c.1,3.1-.3,5.2-2.2,5.6-2.7.6-5.8-.4-5.8,3.5a9.24,9.24,0,0,0,4.2,7.7c2,1.2,1.7,4.6-.2,6s-4.2,6.2-4.9,8.1-1.9,3.1,0,6.8,1.6,12.6-1,14.5-4,8.5-4.6,10.8-3.3,3.5-1.2,6.2,3.3,10.6.8,16-4.8,7.5-7,8.1-2.9,2.9-2.9,5.2,1.2,6-1.9,5.6-8.5-1.6-9.7,0-1.9,3.5-1.5,4.9.8,2.7-.1,4.1-1.4,1.1-2.7,1.6a4.71,4.71,0,0,0-.5.2c-1.7.8-2.2-3.3-3.1-4.1s-5-.6-8.3-.6h-1.1c-4-.2-12.2-1-14.1-1-2.1,0-.8-1-1.7-5.4s-3.1-5.2,0-9.1-.8-2.9-2.9-3.5a55.69,55.69,0,0,1-7-3.4h0c-.5-.3-.9-.5-1.1-.6-.8-.4-3.3,0-6.4,1s-3.3,1.4-5.6-1-3.7-2.5-1.2-6.2,1.4-5.6.6-7,.6-1,1.7-1.7,1.4-1.4-.2-3.1a2.65,2.65,0,0,1-.8-1.9h0c.1-1.1,1.1-2,2.7-2.2,2.5-.4,6,0,5.4-2.7s-3.3-1.7-5.6-2.3-2.7-4.1-4.1-6.2.2-8.3,1-10.4.2-3.3,1.2-5,.6-1.8.2-5a5.75,5.75,0,0,1,.2-2.8c1.6,1,2.3,1.1,5.8,1.6,3.9.6,8.1,2.3,11.4,0s6.4-11.6,7-12.4.6-4.3,2.5-3.7,7,.4,9.7,0,2.3-2.7,3.7-1.3,1.4,1.2,3.5,1.2,4.8-2.5,5-4.6,3.1-1.7,5.6-1.9,3.1-3.5,4.8-4.1,2.9,0,4.8-1.7,3.1-2.3,6.3-3.8,5.7.7,8.7-.8,5.7.2,8.7.4C278.4,188.3,279.4,188.7,280.2,188.3Z" transform="translate(-4.36 -6.01)"/></g><g id="changhua-county"><path class="cls-10" d="M131.9,248l1-1c6.5-6.5,11.5-19.3,11.5-23.9s11.2-10.3,11.2-13,.9-7.1,3.4-9.6c1.1-1,3.3-4.2,5.5-7.7a19.91,19.91,0,0,0,3.9,1.4c3.7,1,3.5,3.1,3.7,7s7.5,5.8,9.7,6.6,4.1,4.1,3.9,6.4.4,2.9,2.5,4.3a2.51,2.51,0,0,0,.7.4,4.64,4.64,0,0,0-.2,2.8c.4,3.2.8,3.4-.2,5s-.4,2.9-1.2,5-2.5,8.3-1,10.4,1.9,5.6,4.1,6.2,5-.4,5.6,2.3-2.9,2.3-5.4,2.7c-1.6.3-2.6,1.2-2.7,2.2a38,38,0,0,0-6.3-1c-2.5,0-7-.6-8.5-2.1s-7.7-1.9-11.2-1.9-4.8-3.7-7.5-3.1-12.4.8-16.2,1A21.36,21.36,0,0,1,131.9,248Z" transform="translate(-4.36 -6.01)"/></g><g id="yunlin-county"><path class="cls-11" d="M131.9,293.8c5.4.4,2.5-6.4,3.9-5s4.6-.2,5.2-2.1.6-2.7,2.9-2.5,2.3-.6,2.3-2.5,2.9-.6,5-3.6,8.3-2.4,11.6-3.6,6.2-.2,7,.8,1.9,3.5,5.2,4.9,5.6.9,10.3-.7,1.5,3.5,4.2,3.5a45.64,45.64,0,0,0,10.4-1.5c1.1-.4,1.2-3.2,1.1-5.4-.5-.3-.9-.5-1.1-.6-.8-.4-3.3,0-6.4,1s-3.3,1.4-5.6-1-3.7-2.5-1.2-6.2,1.4-5.6.6-7,.6-1,1.7-1.7,1.4-1.4-.2-3.1a2.65,2.65,0,0,1-.8-1.9,38,38,0,0,0-6.3-1c-2.5,0-7-.6-8.5-2.1s-7.7-1.9-11.2-1.9-4.8-3.7-7.5-3.1-12.4.8-16.2,1a31.28,31.28,0,0,1-6.5-.6c-5.7,6-7.7,10.5-7.7,15.8-8.9,8.6-7.1,19.9-5.7,28.9a18.53,18.53,0,0,1,4-1.8C125.3,290,126.6,293.3,131.9,293.8Z" transform="translate(-4.36 -6.01)"/></g><g id="chiayi-county"><path class="cls-12" d="M129.3,323.2c2.3-.4,7.2-6.8,8.1-7.4s5.2-5.5,8.5-7.8,7.7-1.2,11-2.1,5.4,1,9.3,1.5,1.5,1.7,1.7,3.3,1.2,3.9,3.6,4.1,2,2.9.9,3.7.5,1.9.1,7.5.8,4.4,1,5,4.3,3.1,6,3.1.8-3.7,1.2-2.5,1.9.4,4.7.8a11.44,11.44,0,0,1,3.3,1.2,3.58,3.58,0,0,1,1.1-.4c-.8-2.1.4-2.9-.4-4.1s-2.3-6.8,0-6.4,3.9,4.6,4.6,2.7a6.35,6.35,0,0,1,5-3.9c2.1-.2,3.3-.6,4.1-2.9s8.5-6.4,10.1-7.2,3.3-6,4.6-7.6c1.1-1.3,3.3-3.3,8.9-5.3-4-.2-12.2-1-14.1-1-2.1,0-.8-1-1.7-5.4s-3.1-5.2,0-9.1-.8-2.9-2.9-3.5a55.69,55.69,0,0,1-7-3.4c.1,2.3.1,5.1-1.1,5.4a52,52,0,0,1-10.4,1.5c-2.7,0,.5-5.2-4.2-3.5s-7,2.1-10.3.7-4.3-3.8-5.2-4.9-3.7-2.1-7-.8-9.5.6-11.6,3.6-5,1.8-5,3.6,0,2.7-2.3,2.5-2.3.6-2.9,2.5-3.7,3.5-5.2,2.1,1.5,5.4-3.9,5-6.6-3.7-9.5-2.9a16.23,16.23,0,0,0-4,1.8c.2,1.1.3,2.1.5,3.1,1.2,9.3,3.7,14-.6,18-2.2,2.1-2.5,3.2-2.1,4.1a17,17,0,0,1,7.3,1.6C125.9,320.9,127,323.6,129.3,323.2Zm29.5-31.9c3.8-.4,4.6.4,7.1,1.8s6.6,4.9,5.2,5.9-2.7.6-4.8,1.7-5.4,4.4-5.9,2.8-1.6-4-3-4.3-5.6.2-5.6-4.3C151.8,293.1,155,291.7,158.8,291.3Z" transform="translate(-4.36 -6.01)"/></g><g id="chiayi-city"><path class="cls-13" d="M151.8,294.8c0-1.7,3.2-3.1,7-3.5s4.6.4,7.1,1.8,6.6,4.9,5.2,5.9-2.7.6-4.8,1.7-5.4,4.4-5.9,2.8-1.6-4-3-4.3S151.8,299.4,151.8,294.8Z" transform="translate(-4.36 -6.01)"/></g><g id="tainan-city"><path class="cls-14" d="M122.6,372a7.74,7.74,0,0,1,.4-2c.9-2.5,3.4-6.8,1.9-8.1s-5,1.2-5.6,3.7-2.8-2.5-2.2-5.3-.9-2.8-5-.3-6.2-4.4-1.6-6.5c-2.6-3.4-1.9-6.2,0-13.7s1.9-15.8,3.4-16.5,5-.3,4-2.8c-.4-1.2-1.4-1.9-1.8-2.7a17,17,0,0,1,7.3,1.6c2.5,1.5,3.5,4.1,5.8,3.7s7.2-6.8,8.1-7.4,5.2-5.5,8.5-7.8,7.7-1.2,11-2.1,5.4,1,9.3,1.5,1.5,1.7,1.7,3.3,1.2,3.9,3.6,4.1,2,2.9.9,3.7.5,1.9.1,7.5.8,4.4,1,5,4.3,3.1,6,3.1.8-3.7,1.2-2.5,1.9.4,4.7.8a11.44,11.44,0,0,1,3.3,1.2c-3.1,1.7-1.6,8.3-3.3,9.6-1.9,1.5-8.2,10.8-10.7,13.9s-8.7,8.3-11.8,9.5-2.3,4.1-2.1,6.6-2.1,3.9-4.3,4.1-2.9,1-4.6,3.3-4.6,1.7-7,0-6.8-.8-8.7-1a26.72,26.72,0,0,1-7.9-2.9A26.3,26.3,0,0,1,122.6,372Z" transform="translate(-4.36 -6.01)"/></g><g id="kaohsiung-city"><path class="cls-15" d="M157.9,441.7c-.1-.1-.1-.2-.2-.2-8.1-.9-14.6-8.7-17.7-13.7s-9-9.6-7.5-11.5,4-7.1,1.9-9.9-9.3-9-6.2-15.8c-4.8-7.8-5.9-14.8-5.6-18.5a32.75,32.75,0,0,0,5.6,4.8,26.72,26.72,0,0,0,7.9,2.9c1.9.2,6.2-.6,8.7,1s5.4,2.3,7,0,2.3-3.1,4.6-3.3,4.6-1.7,4.3-4.1-1-5.4,2.1-6.6,9.3-6.4,11.8-9.5,8.8-12.4,10.7-13.9c1.7-1.3.2-7.9,3.3-9.6,1,.5,1.6.8,1.1-.4-.8-2.1.4-2.9-.4-4.1s-2.3-6.8,0-6.4,3.9,4.6,4.6,2.7a6.35,6.35,0,0,1,5-3.9c2.1-.2,3.3-.6,4.1-2.9s8.5-6.4,10.1-7.2,3.3-6,4.6-7.6c1.1-1.3,3.3-3.3,8.9-5.3h1.1c3.3,0,7.5-.2,8.3.6s1.4,5,3.1,4.1c.2-.1.3-.2.5-.2a6.64,6.64,0,0,1-.7,4.4c-1,1.5-3.1,1-4.6,2.5s-2.5,6.2.8,5.9,5.8.5,6,3.2c.1,1,.1,2,.1,3.1a11.24,11.24,0,0,1-5.3,3.3c-2.7.5-4.6-2.2-6.2,3.6-1.7,2.3-3.3,1.9-4.8,2.5s0,5.2,0,7-1.2,2.9-3.5,4.6-.4,2.9,0,6-.6,7.9-2.1,8.7,2.9,3.5,1.2,5.2-5.6,3.5-7,4.8-1.9,4.8-1.2,6.8a21.33,21.33,0,0,0,3.5,7.7,21.52,21.52,0,0,1,2.6,3.8,10.2,10.2,0,0,1-5-.7c-1.9-.6-3.1,3.3-5,4.1s-4.3,1.6-4.3-2.1-5.2-5.1-7.7-3.3-6.2,3.1-6.6,1.2-2.7-2.3-5-.4-5.4,7-7.5,6.6-9.5-.8-10.6-1.5-2.3,3.5-2.7,5.2-.2,11.4-1.2,15.1a46,46,0,0,0-1.7,16.2A28,28,0,0,1,157.9,441.7Z" transform="translate(-4.36 -6.01)"/></g><g id="pingtung-county"><path class="cls-16" d="M214.8,473.1c.9.5,3.4,2.8,5.6,4.6.8,6.5,1.7,12.7,1.9,15.6.6,6.5.1,14.3-3.4,15.2s-3.5,5.3-1.9,8.4.5,10.3-1,8.6-3.7-4.5-6.5-5.8-5.3-2.2-6.5-4c-1.2,2.8,0,5.6-4,5.3s-5-3.1-3.1-9.3c-3.1-3.1-3.7-6.8-3.1-11.8s-1.2-17.7-6.8-26.7c-2.2-3.4,1.2-6.5-3.1-9s-3.1-9-7.1-10.6-12.2-4.9-17.8-11.9a28.35,28.35,0,0,0,3.2-15.2,44.34,44.34,0,0,1,1.7-16.2c1-3.7.8-13.5,1.2-15.1s1.7-5.8,2.7-5.2,8.5,1,10.6,1.5,5.2-4.8,7.5-6.6,4.6-1.4,5,.4,4.1.6,6.6-1.2,7.7-.4,7.7,3.3,2.5,2.9,4.3,2.1,3.1-4.8,5-4.1a10.2,10.2,0,0,0,5,.7,2.34,2.34,0,0,1-.1,2c-.8,1.7.6,3.5,5,6.2s-1.2,6-1.2,9.1-3.3,4.8-6,4.8-.2,2.7-6.6,3.3c-1.7-.4-1.7.8-1.7,2.3s-3.5,8.1-4.3,9.9.2,10.1,1.2,13.9-.4,6.8,2.7,10.1-4.1,2.9-4.2,4.3-.7,7.2,1.1,8.1,6.2-.4,4.1,4.8,2.1,4.1,1.5,7C209.2,474.8,213.3,472.3,214.8,473.1ZM141.3,456c-2.8,6.5-.9,8.4,3.4,10.3s9-7.4,9-11.8C153.7,444.3,144.1,449.5,141.3,456Z" transform="translate(-4.36 -6.01)"/></g><g id="taitung-county"><path class="cls-17" d="M296.6,302.5a21.12,21.12,0,0,1,2.6.2,26.23,26.23,0,0,0-.1,2.7c0,6.5-2.5,15.2-6.2,16.8s-5,9.9-2.8,16.2-3.1,13-9.9,17.7c-1.2,5-.6,10.3-4.7,14.9s-8.1,11.8-12.7,15.2a44.33,44.33,0,0,0-4,10.9c-1.2,4.3-4,8.4-8.4,8.7s-5.9,2.2-5.6,4.7-3.4,2.8-5,4-1.1,6.8-3.8,9.6-6.1,3.1-6.8,5.3.3,8.4-1.9,14.9-6.8,8.4-8.1,13.7c-.7,2.9.2,11.6,1.2,19.8-2.2-1.8-4.7-4.1-5.6-4.6-1.4-.8-5.6,1.7-5-1.2s-3.5-1.9-1.5-7-2.3-3.9-4.1-4.8-1.2-6.6-1.1-8.1,7.3-1,4.2-4.3-1.7-6.4-2.7-10.1-2.1-12-1.2-13.9,4.3-8.5,4.3-9.9,0-2.7,1.7-2.3c6.4-.6,3.9-3.3,6.6-3.3s6-1.7,6-4.8,5.6-6.4,1.2-9.1-5.8-4.6-5-6.2a2.77,2.77,0,0,0,.1-2h0a17.11,17.11,0,0,0-2.6-3.8,21.33,21.33,0,0,1-3.5-7.7c-.6-2.1-.2-5.6,1.2-6.8s5.4-3.1,7-4.8-2.7-4.4-1.2-5.2,2.5-5.6,2.1-8.7-2.3-4.3,0-6,3.5-2.7,3.5-4.6-1.5-6.4,0-7,3.1-.2,4.8-2.5c1.7-5.8,3.5-3.1,6.2-3.6a11.24,11.24,0,0,0,5.3-3.3,17.3,17.3,0,0,0,1.3,6.3c1.7,3.5,4.3,4.1,7.9,5s5.6,2.9,7.7,2.5,2.9.4,2.7,2.9,2.3,4.1,3.7,5.6,2.5,3.1,4.1,3.3.6,3.3,2.3,3.1a18.08,18.08,0,0,0,6.6-2.5c2.1-1.2,1.2-5.4,1.4-8.3s2.7-3.3,2.9-4.8,3.7-6.6,3.9-8.5.4-5.6,2.3-7.9,1.2-6.4,0-9.1,3.1-3.7,3.9-5C292.9,303.5,292.3,302.3,296.6,302.5ZM302.5,407c1.4,2.9,2.5,4.3,2.5,9.9s16.8,12.7,17.7,10.6-2.8-12.7-2.8-22.4C318.9,402,301,404,302.5,407Zm-14,80.1c-.9,3.4,3.7,6.8,6.5,9s3.7-.9,7.4,1.2,8.2,6.5,10.2,4.3,1.4-9-1.4-9.3-8.7-2.2-5.9-3.4,2.5-9.9,0-11.3-15-.7-19,0C281.6,478.6,289.5,483.7,288.5,487.1Z" transform="translate(-4.36 -6.01)"/></g><g id="hualien-county"><path class="cls-18" d="M335.2,173.5c.5,1.3,1.1,2.2-.1,3.6-2.2,2.5-16.5,18-15.2,25.8-.3,3.4-11.2,4.7-2.5,13.5,1.2,2.9-.9,5.1-2.2,8.8s-2.8,8.7-1.2,12.1-5.3,9.6-8.7,29.2c-3,17.1-5.5,29-6.1,36.1-.8-.1-1.7-.1-2.6-.2-4.3-.2-3.7,1-4.6,2.3s-5.2,2.3-3.9,5,1.9,6.8,0,9.1-2.1,6-2.3,7.9-3.7,7-3.9,8.5-2.7,1.9-2.9,4.8.6,7-1.4,8.3a21.88,21.88,0,0,1-6.6,2.5c-1.7.2-.6-2.9-2.3-3.1s-2.7-1.9-4.1-3.3-3.9-3.1-3.7-5.6-.6-3.3-2.7-2.9-4.1-1.7-7.7-2.5-6.2-1.5-7.9-5a13.71,13.71,0,0,1-1.3-6.3h0c0-1.1,0-2.1-.1-3.1-.2-2.7-2.7-3.5-6-3.2s-2.3-4.4-.8-5.9,3.5-1,4.6-2.5c.7-.9.9-2.5.7-4.4,1.3-.5,1.9-.3,2.7-1.6.9-1.5.5-2.7.1-4.1a5.75,5.75,0,0,1,1.5-4.9c1.2-1.6,6.6-.4,9.7,0s1.9-3.3,1.9-5.6.6-4.6,2.9-5.2,4.6-2.7,7-8.1,1.2-13.3-.8-16,.6-3.9,1.2-6.2,2.1-8.9,4.6-10.8,2.8-10.8,1-14.5-.6-5,0-6.8,2.9-6.6,4.9-8.1,2.2-4.8.2-6a8.74,8.74,0,0,1-4.2-7.7c0-3.9,3.1-2.9,5.8-3.5,2-.4,2.4-2.5,2.2-5.6a3.44,3.44,0,0,0,1.3-1.2c1.5-2.1,2.7-.4,3.5-2.9s3.3-6.2,5-7.3c1.3-.8,3.2-4,4.5-8.5,1,1,2.6,1.1,4.8,1.7,2.9.8,8.5.8,9.9,2.3s3.5,0,5.6-.8,1.5-3.1.9-4.6,7,1.4,8.4,3.3C325.3,172,328.8,174.7,335.2,173.5Z" transform="translate(-4.36 -6.01)"/></g><g id="yilan-county"><path class="cls-19" d="M356.3,77.1c1.5.2,3.3.5,5.1.8a24.9,24.9,0,0,1-3.2,2.1c-3.7,2-9.6,5.1-10.3,10.3s-11.8-.3-5.6,26.7c0,5-.3,15.3-.3,15.3s5.3-2.2,8.4,1.8-9.6-.1-1.6,4.9c2.6,3.1-5.3,7-5.3,7s2.5,3.2,2.2,4.5-9,4-9.3,7.5,1.2,6.5-.9,10.9a4.8,4.8,0,0,0-.2,4.5c-6.4,1.2-9.9-1.5-11.2-3.2-1.4-1.9-9-4.8-8.4-3.3s1.2,3.7-.9,4.6-4.1,2.3-5.6.8-7-1.5-9.9-2.3c-2.2-.6-3.8-.7-4.8-1.7h0a3.69,3.69,0,0,1-.8-1.4,4.24,4.24,0,0,0-4.4-3c-1.7,0-4.1,3.5-6,2.9s-2.5-3.3-3.5-2.7-3.3-1.2-3.4-3.1a13.57,13.57,0,0,0-.8-3.4c3.5-.9.7-2.7.7-4.4,0-1.9,4.1-5.6,7.5-7.4s3.7-3.4,3.1-5.4c-.4-1.4.4-3.4,1-5.3a4.94,4.94,0,0,0,1.5-.3c2.1-.6,5.2-.6,6.1-2.9s-2.5-5-1.7-7.2c.3-.7.5-1.5.8-2.3h0c.8.6,7.9,1.5,8.8-1.4s3.4-4.1,6.1-5,4.1-1,2.3-4.4-1.4-3.5.8-5.8,4.5-3.7,6.4-3.7,6.6-1.2,7.3-3.3.2-2.5,4.3-2.9,6.2-4.6,6.6-6,2.5-1.9,5-1.9,3.5-3.1,2.1-5-1-3.9,3.7-3.3S352.5,76.7,356.3,77.1Z" transform="translate(-4.36 -6.01)"/></g><g id="penghu-county"><path class="cls-20" d="M30.7,283.9c-2.2-3.7,4.7-11.2,5.3-6.5s1.6,5.2,7.8.9,10.9,8.7,7.8,8.1-6.2.9-8.1,4.8S37.9,301,32,299.8s-2.2-8.1,0-8.6A12,12,0,0,0,30.7,283.9Zm-2-11.5c-.1-3.7-7.4-6.8-6.5-1.8s-1.2,4.9-4.7,9.9,2.2,9.1,6.2,7.4C27.6,286.4,28.8,276.2,28.7,272.4Zm1.3-1.8c.9,2.5,9,6.9,10.6,5.3s4-6.2,0-9.8S27.6,264,30,270.6Z" transform="translate(-4.36 -6.01)"/></g><g id="kinmen-county"><path class="cls-21" d="M9.5,176.7c2.8-.6,6.5,3.4,3.4,6.8s-6.6,5.3-7.8,0C4.1,178.3,6.4,177.4,9.5,176.7Zm11.2,0c0,3.1,6,3.2,1.9,7.8s-4.1,10.6,1.6,12.1,6.1-10.6,18.5-10c4,0,5.4,3.8,9.7,3.8s9-5.1,6.5-8.6-.9-9.4-3.1-12.2-5.6-4.7-9.3-3-.9,6.4-5.9,7.6-5.8,3.7-11,.9S20.7,171.3,20.7,176.7Z" transform="translate(-4.36 -6.01)"/></g><g id="lianjiang-county"><path class="cls-22" d="M26.5,105.6s.3,5.3,4.1,3.2c0,0,1.8-5,6.2-5.1,0,0,4.4-.8,4.7,1.9,0,0,.8,5-1.8,6.8,0,0-6-.3-5.6,2.9,0,0-1.4,4.4-5.8,2.9,0,0-2.2-.1-3,1.1a3.85,3.85,0,0,1-4.5-1.1,4.83,4.83,0,0,0-2-.7s-3.5-.4-3.2-3.3c0,0-.6-4.4.7-5.1,0,0,1.2-.6,1.5-3.1,0,0-.1-5,2.9-5.6C20.6,100.6,25,99.3,26.5,105.6ZM40.6,85.9c-1.1,3.6,2.1,5.9,2.1,5.9,4.5,1.2,4.4-3.9,4.4-3.9-.4-2.3,1.8-5.1,1.8-5.1.9-2.5,4.4-3.1,4.4-3.1,3.5,1.4,4.9-1.1,4.9-1.1,1.3-1.7,5.7-1.1,5.7-1.1a3.78,3.78,0,0,0,2.6-.3c.9-.1,1.1-5.5,1.1-5.5-.3-3.9-6.2-2.5-6.2-2.5a11.41,11.41,0,0,1-4.2-3c-3.4-3-3.5-.4-5.4,0-1.7.6-10.2,7.8-10.2,7.8-2.3,2.3,0,4.7,0,4.7C44.6,80.2,40.6,85.9,40.6,85.9Z" transform="translate(-4.36 -6.01)"/></g></svg>